<?xml version="1.0" encoding="UTF-8" standalone="no"?>
<!-- Generator: Adobe Illustrator 14.0.0, SVG Export Plug-In . SVG Version: 6.00 Build 43363)  -->

<svg
   xmlns:dc="http://purl.org/dc/elements/1.1/"
   xmlns:cc="http://creativecommons.org/ns#"
   xmlns:rdf="http://www.w3.org/1999/02/22-rdf-syntax-ns#"
   xmlns:svg="http://www.w3.org/2000/svg"
   xmlns="http://www.w3.org/2000/svg"
   xmlns:sodipodi="http://sodipodi.sourceforge.net/DTD/sodipodi-0.dtd"
   xmlns:inkscape="http://www.inkscape.org/namespaces/inkscape"
   version="1.1"
   id="Layer_1"
   x="0px"
   y="0px"
   width="160"
   height="160"
   viewBox="0 0 160 160"
   enable-background="new 0 0 612 792"
   xml:space="preserve"
   inkscape:version="0.48.4 r9939"
   sodipodi:docname="acdc.svg"><metadata
     id="metadata147"><rdf:RDF><cc:Work
         rdf:about=""><dc:format>image/svg+xml</dc:format><dc:type
           rdf:resource="http://purl.org/dc/dcmitype/StillImage" /></cc:Work></rdf:RDF></metadata><defs
     id="defs145" /><sodipodi:namedview
     pagecolor="#ffffff"
     bordercolor="#666666"
     borderopacity="1"
     objecttolerance="10"
     gridtolerance="10"
     guidetolerance="10"
     inkscape:pageopacity="0"
     inkscape:pageshadow="2"
     inkscape:window-width="1359"
     inkscape:window-height="876"
     id="namedview143"
     showgrid="false"
     inkscape:zoom="3.3712566"
     inkscape:cx="35.99038"
     inkscape:cy="103.93338"
     inkscape:window-x="81"
     inkscape:window-y="24"
     inkscape:window-maximized="1"
     inkscape:current-layer="Layer_1" /><g
     id="g3"
     transform="matrix(1.0443592,0,0,1.0507375,-238.92432,-336.48975)"><polygon
       clip-rule="evenodd"
       points="278.543,425.77 291.542,412.771 285.669,407.02 277.987,414.701 274.838,411.643 274.838,374.816 285.672,385.801 291.826,379.769 279.175,366.986 279.175,366.986 266.813,379.281 266.813,414.107 "
       id="polygon7"
       style="fill:#e03a3e;fill-rule:evenodd" /><polygon
       clip-rule="evenodd"
       points="306.808,395.043 306.808,395.043 312.8,378.759 303.636,378.759 293.016,403.139 301.535,403.139 294.153,424.377 315.201,395.043 "
       id="polygon9"
       style="fill:#e03a3e;fill-rule:evenodd" /><path
       clip-rule="evenodd"
       d="m 347.853,377.585 -10.604,-10.739 h -12.055 l -6.73,6.794 3.741,3.741 v 38.062 l -3.678,3.676 6.673,6.93 h 12.049 l 10.604,-10.74 v -37.724 l 0,0 z m -17.624,42.2 v -46.666 l 9.599,9.188 v 28.208 l -9.599,9.27 0,0 z"
       id="path11"
       inkscape:connector-curvature="0"
       style="fill:#e03a3e;fill-rule:evenodd" /><path
       clip-rule="evenodd"
       d="M 260.741,414.668 V 379.28 l -12.226,-12.226 -13.352,13.284 v 34.33 l -3.529,3.529 7.509,7.57 7.573,-7.572 -3.527,-3.527 v -8.781 h 9.527 v 8.781 l -3.529,3.529 7.508,7.57 7.573,-7.572 -3.527,-3.527 0,0 z M 243.189,397.51 v -22.677 l 9.527,9.527 v 13.15 h -9.527 l 0,0 z"
       id="path13"
       inkscape:connector-curvature="0"
       style="fill:#e03a3e;fill-rule:evenodd" /><polygon
       clip-rule="evenodd"
       points="250.69,395.485 252.717,397.51 243.189,397.51 245.215,395.485 250.69,395.485 "
       id="polygon15"
       style="fill:#ffe7c2;fill-rule:evenodd" /><polygon
       clip-rule="evenodd"
       points="250.69,395.485 252.717,397.51 252.717,384.36 250.69,385.199 250.69,395.485 "
       id="polygon17"
       style="fill:#f9ad86;fill-rule:evenodd" /><polygon
       clip-rule="evenodd"
       points="250.69,385.199 252.717,384.36 243.189,374.833 245.215,379.723 250.69,385.199 "
       id="polygon19"
       style="fill:#773f00;fill-rule:evenodd" /><polygon
       clip-rule="evenodd"
       points="245.215,395.485 243.189,397.51 243.189,374.833 245.215,379.723 245.215,395.485 "
       id="polygon21"
       style="fill:#f9ad86;fill-rule:evenodd" /><polygon
       clip-rule="evenodd"
       points="267.134,418.195 264.269,418.195 260.741,414.668 262.768,413.828 267.134,418.195 "
       id="polygon23"
       style="fill:#ffe7c2;fill-rule:evenodd" /><polygon
       clip-rule="evenodd"
       points="267.134,418.195 264.269,418.195 256.696,425.768 256.69,428.639 267.134,418.195 "
       id="polygon25"
       style="fill:#ed1c29;fill-rule:evenodd" /><polygon
       clip-rule="evenodd"
       points="250.69,413.828 252.717,414.668 252.717,405.887 250.69,407.914 250.69,413.828 "
       id="polygon27"
       style="fill:#f9ad86;fill-rule:evenodd" /><polygon
       clip-rule="evenodd"
       points="250.69,407.914 252.717,405.887 243.189,405.887 245.215,407.914 250.69,407.914 "
       id="polygon29"
       style="fill:#773f00;fill-rule:evenodd" /><polygon
       clip-rule="evenodd"
       points="245.215,413.828 243.189,414.668 243.189,405.887 245.215,407.914 245.215,413.828 "
       id="polygon31"
       style="fill:#f9ad86;fill-rule:evenodd" /><polygon
       clip-rule="evenodd"
       points="239.138,428.639 239.144,425.768 231.635,418.197 228.776,418.191 239.138,428.639 "
       id="polygon33"
       style="fill:#773f00;fill-rule:evenodd" /><polygon
       clip-rule="evenodd"
       points="228.776,418.191 231.635,418.197 235.164,414.668 233.138,413.828 228.776,418.191 "
       id="polygon35"
       style="fill:#f9ad86;fill-rule:evenodd" /><polygon
       clip-rule="evenodd"
       points="233.138,413.828 235.164,414.668 235.164,380.338 233.138,379.497 233.138,413.828 "
       id="polygon37"
       style="fill:#f9ad86;fill-rule:evenodd" /><polygon
       clip-rule="evenodd"
       points="260.741,414.668 262.768,413.828 262.768,378.441 260.741,379.28 260.741,414.668 "
       id="polygon39"
       style="fill:#f9ad86;fill-rule:evenodd" /><polygon
       clip-rule="evenodd"
       points="332.255,415.012 330.229,419.785 339.827,410.516 337.801,409.656 332.255,415.012 "
       id="polygon41"
       style="fill:#f9ad86;fill-rule:evenodd" /><polygon
       clip-rule="evenodd"
       points="337.801,409.656 339.827,410.516 339.827,382.308 337.801,383.172 337.801,409.656 "
       id="polygon43"
       style="fill:#f9ad86;fill-rule:evenodd" /><polygon
       clip-rule="evenodd"
       points="337.801,383.172 339.827,382.308 330.229,373.119 332.255,377.863 337.801,383.172 "
       id="polygon45"
       style="fill:#773f00;fill-rule:evenodd" /><polygon
       clip-rule="evenodd"
       points="332.255,415.012 330.229,419.785 330.229,373.119 332.255,377.863 332.255,415.012 "
       id="polygon47"
       style="fill:#f9ad86;fill-rule:evenodd" /><polygon
       clip-rule="evenodd"
       points="349.877,416.141 347.853,415.309 347.853,377.585 349.877,376.754 349.877,416.141 "
       id="polygon49"
       style="fill:#f9ad86;fill-rule:evenodd" /><polygon
       clip-rule="evenodd"
       points="338.095,428.074 337.248,426.049 347.853,415.309 349.877,416.141 338.095,428.074 "
       id="polygon51"
       style="fill:#ed1c29;fill-rule:evenodd" /><polygon
       clip-rule="evenodd"
       points="324.338,428.074 325.199,426.049 337.248,426.049 338.095,428.074 324.338,428.074 "
       id="polygon53"
       style="fill:#773f00;fill-rule:evenodd" /><polygon
       clip-rule="evenodd"
       points="324.338,428.074 325.199,426.049 318.526,419.119 315.688,419.094 324.338,428.074 "
       id="polygon55"
       style="fill:#773f00;fill-rule:evenodd" /><polygon
       clip-rule="evenodd"
       points="320.178,414.604 322.204,415.443 318.526,419.119 315.688,419.094 320.178,414.604 "
       id="polygon57"
       style="fill:#f9ad86;fill-rule:evenodd" /><polygon
       clip-rule="evenodd"
       points="320.178,414.604 322.204,415.443 322.204,377.381 320.178,378.221 320.178,414.604 "
       id="polygon59"
       style="fill:#f9ad86;fill-rule:evenodd" /><polygon
       clip-rule="evenodd"
       points="320.178,378.221 322.204,377.381 318.463,373.641 315.604,373.647 320.178,378.221 "
       id="polygon61"
       style="fill:#773f00;fill-rule:evenodd" /><polygon
       clip-rule="evenodd"
       points="315.604,373.647 318.463,373.641 325.193,366.846 324.349,364.82 315.604,373.647 "
       id="polygon63"
       style="fill:#f9ad86;fill-rule:evenodd" /><polygon
       clip-rule="evenodd"
       points="338.095,364.82 337.248,366.846 325.193,366.846 324.349,364.82 338.095,364.82 "
       id="polygon65"
       style="fill:#ffe7c2;fill-rule:evenodd" /><polygon
       clip-rule="evenodd"
       points="349.877,376.754 347.853,377.585 337.248,366.846 338.095,364.82 349.877,376.754 "
       id="polygon67"
       style="fill:#ffe7c2;fill-rule:evenodd" /><polygon
       clip-rule="evenodd"
       points="319.06,393.018 315.201,395.043 306.808,395.043 309.712,393.018 319.06,393.018 "
       id="polygon69"
       style="fill:#ffe7c2;fill-rule:evenodd" /><polygon
       clip-rule="evenodd"
       points="298.686,405.164 301.535,403.139 293.016,403.139 289.924,405.164 298.686,405.164 "
       id="polygon71"
       style="fill:#773f00;fill-rule:evenodd" /><polygon
       clip-rule="evenodd"
       points="315.703,376.734 312.8,378.759 303.636,378.759 302.309,376.734 315.703,376.734 "
       id="polygon73"
       style="fill:#ffe7c2;fill-rule:evenodd" /><polygon
       clip-rule="evenodd"
       points="309.712,393.018 306.808,395.043 312.8,378.759 315.703,376.734 309.712,393.018 "
       id="polygon75"
       style="fill:#ed1c29;fill-rule:evenodd" /><polygon
       clip-rule="evenodd"
       points="294.698,379.791 291.826,379.769 279.175,366.986 279.186,364.118 294.698,379.791 "
       id="polygon77"
       style="fill:#ffe7c2;fill-rule:evenodd" /><polygon
       clip-rule="evenodd"
       points="294.698,379.791 291.826,379.769 285.672,385.801 285.648,388.662 294.698,379.791 "
       id="polygon79"
       style="fill:#ed1c29;fill-rule:evenodd" /><polygon
       clip-rule="evenodd"
       points="285.648,388.662 285.672,385.801 274.838,374.816 276.864,379.755 285.648,388.662 "
       id="polygon81"
       style="fill:#773f00;fill-rule:evenodd" /><polygon
       clip-rule="evenodd"
       points="276.864,410.785 274.838,411.643 274.838,374.816 276.864,379.755 276.864,410.785 "
       id="polygon83"
       style="fill:#f9ad86;fill-rule:evenodd" /><polygon
       clip-rule="evenodd"
       points="277.966,411.857 277.987,414.701 274.838,411.643 276.864,410.785 277.966,411.857 "
       id="polygon85"
       style="fill:#ffe7c2;fill-rule:evenodd" /><polygon
       clip-rule="evenodd"
       points="277.966,411.857 277.987,414.701 285.669,407.02 285.654,404.17 277.966,411.857 "
       id="polygon87"
       style="fill:#f9ad86;fill-rule:evenodd" /><polygon
       clip-rule="evenodd"
       points="294.422,412.756 291.542,412.771 285.669,407.02 285.654,404.17 294.422,412.756 "
       id="polygon89"
       style="fill:#ffe7c2;fill-rule:evenodd" /><polygon
       clip-rule="evenodd"
       points="294.422,412.756 291.542,412.771 278.543,425.77 278.547,428.631 294.422,412.756 "
       id="polygon91"
       style="fill:#ed1c29;fill-rule:evenodd" /><polygon
       clip-rule="evenodd"
       points="278.547,428.631 278.543,425.77 266.813,414.107 264.787,414.949 278.547,428.631 "
       id="polygon93"
       style="fill:#773f00;fill-rule:evenodd" /><polygon
       clip-rule="evenodd"
       points="264.787,414.949 266.813,414.107 266.813,379.281 264.787,378.439 264.787,414.949 "
       id="polygon95"
       style="fill:#f9ad86;fill-rule:evenodd" /><polygon
       clip-rule="evenodd"
       points="279.186,364.118 279.175,366.986 266.813,379.281 264.787,378.439 279.186,364.118 "
       id="polygon97"
       style="fill:#f9ad86;fill-rule:evenodd" /><polygon
       clip-rule="evenodd"
       points="365.825,425.77 378.823,412.771 372.95,407.02 365.27,414.701 362.119,411.643 362.119,374.816 372.954,385.801 379.107,379.769 366.457,366.986 366.457,366.986 354.095,379.281 354.095,414.107 "
       id="polygon99"
       style="fill:#e03a3e;fill-rule:evenodd" /><polygon
       clip-rule="evenodd"
       points="381.98,379.791 379.107,379.769 366.457,366.986 366.468,364.118 381.98,379.791 "
       id="polygon101"
       style="fill:#ffe7c2;fill-rule:evenodd" /><polygon
       clip-rule="evenodd"
       points="381.98,379.791 379.107,379.769 372.954,385.801 372.93,388.662 381.98,379.791 "
       id="polygon103"
       style="fill:#ed1c29;fill-rule:evenodd" /><polygon
       clip-rule="evenodd"
       points="372.93,388.662 372.954,385.801 362.119,374.816 364.146,379.755 372.93,388.662 "
       id="polygon105"
       style="fill:#773f00;fill-rule:evenodd" /><polygon
       clip-rule="evenodd"
       points="364.146,410.785 362.119,411.643 362.119,374.816 364.146,379.755 364.146,410.785 "
       id="polygon107"
       style="fill:#f9ad86;fill-rule:evenodd" /><polygon
       clip-rule="evenodd"
       points="365.248,411.857 365.27,414.701 362.119,411.643 364.146,410.785 365.248,411.857 "
       id="polygon109"
       style="fill:#ffe7c2;fill-rule:evenodd" /><polygon
       clip-rule="evenodd"
       points="365.248,411.857 365.27,414.701 372.95,407.02 372.936,404.17 365.248,411.857 "
       id="polygon111"
       style="fill:#f9ad86;fill-rule:evenodd" /><polygon
       clip-rule="evenodd"
       points="381.703,412.756 378.823,412.771 372.95,407.02 372.936,404.17 381.703,412.756 "
       id="polygon113"
       style="fill:#ffe7c2;fill-rule:evenodd" /><polygon
       clip-rule="evenodd"
       points="381.703,412.756 378.823,412.771 365.825,425.77 365.828,428.631 381.703,412.756 "
       id="polygon115"
       style="fill:#ed1c29;fill-rule:evenodd" /><polygon
       clip-rule="evenodd"
       points="365.828,428.631 365.825,425.77 354.095,414.107 352.068,414.949 365.828,428.631 "
       id="polygon117"
       style="fill:#773f00;fill-rule:evenodd" /><polygon
       clip-rule="evenodd"
       points="352.068,414.949 354.095,414.107 354.095,379.281 352.068,378.439 352.068,414.949 "
       id="polygon119"
       style="fill:#f9ad86;fill-rule:evenodd" /><polygon
       clip-rule="evenodd"
       points="366.468,364.118 366.457,366.986 354.095,379.281 352.068,378.439 366.468,364.118 "
       id="polygon121"
       style="fill:#f9ad86;fill-rule:evenodd" /><polygon
       clip-rule="evenodd"
       points="235.164,380.338 233.138,379.497 248.52,364.193 248.516,367.054 235.164,380.338 "
       id="polygon123"
       style="fill:#f9ad86;fill-rule:evenodd" /><polygon
       clip-rule="evenodd"
       points="260.741,379.28 262.768,378.441 248.52,364.193 248.516,367.054 260.741,379.28 "
       id="polygon125"
       style="fill:#ffe7c2;fill-rule:evenodd" /><polygon
       clip-rule="evenodd"
       points="294.153,424.377 294.952,426.74 319.06,393.018 315.201,395.043 294.153,424.377 "
       id="polygon127"
       style="fill:#ed1c29;fill-rule:evenodd" /><polygon
       clip-rule="evenodd"
       points="294.153,424.377 291.187,426.74 298.686,405.164 301.535,403.139 294.153,424.377 "
       id="polygon129"
       style="fill:#f9ad86;fill-rule:evenodd" /><polygon
       clip-rule="evenodd"
       points="293.016,403.139 289.924,405.164 302.309,376.734 303.636,378.759 293.016,403.139 "
       id="polygon131"
       style="fill:#f9ad86;fill-rule:evenodd" /><polygon
       clip-rule="evenodd"
       points="291.187,426.74 291.187,426.74 294.952,426.74 294.153,424.377 "
       id="polygon133"
       style="fill:#773f00;fill-rule:evenodd" /><polygon
       clip-rule="evenodd"
       points="249.188,418.197 252.717,414.668 250.69,413.828 247.953,416.566 247.953,418.197 249.186,418.195 249.186,418.195 "
       id="polygon135"
       style="fill:#f9ad86;fill-rule:evenodd" /><polygon
       clip-rule="evenodd"
       points="247.953,416.566 247.953,418.197 246.716,418.195 246.716,418.195 243.189,414.668 245.215,413.828 "
       id="polygon137"
       style="fill:#ffe7c2;fill-rule:evenodd" /><polygon
       clip-rule="evenodd"
       points="256.69,428.639 256.696,425.768 249.186,418.195 249.186,418.195 247.95,418.197 247.95,419.826 "
       id="polygon139"
       style="fill:#773f00;fill-rule:evenodd" /><polygon
       clip-rule="evenodd"
       points="247.95,418.197 246.716,418.195 239.144,425.768 239.144,425.768 239.138,428.639 247.95,419.826 "
       id="polygon141"
       style="fill:#ed1c29;fill-rule:evenodd" /></g></svg>