<?xml version="1.0" encoding="UTF-8" standalone="no"?>
<!-- Created with Inkscape (http://www.inkscape.org/) -->

<svg
   xmlns:dc="http://purl.org/dc/elements/1.1/"
   xmlns:cc="http://creativecommons.org/ns#"
   xmlns:rdf="http://www.w3.org/1999/02/22-rdf-syntax-ns#"
   xmlns:svg="http://www.w3.org/2000/svg"
   xmlns="http://www.w3.org/2000/svg"
   xmlns:sodipodi="http://sodipodi.sourceforge.net/DTD/sodipodi-0.dtd"
   xmlns:inkscape="http://www.inkscape.org/namespaces/inkscape"
   width="20"
   height="20"
   id="svg2"
   version="1.1"
   inkscape:version="0.48.4 r9939"
   sodipodi:docname="errado.svg">
  <defs
     id="defs4" />
  <sodipodi:namedview
     id="base"
     pagecolor="#ffffff"
     bordercolor="#666666"
     borderopacity="1.0"
     inkscape:pageopacity="0.0"
     inkscape:pageshadow="2"
     inkscape:zoom="2.8"
     inkscape:cx="0.76414653"
     inkscape:cy="34.377783"
     inkscape:document-units="px"
     inkscape:current-layer="text2985"
     showgrid="false"
     inkscape:window-width="1600"
     inkscape:window-height="838"
     inkscape:window-x="-8"
     inkscape:window-y="-8"
     inkscape:window-maximized="1" />
  <metadata
     id="metadata7">
    <rdf:RDF>
      <cc:Work
         rdf:about="">
        <dc:format>image/svg+xml</dc:format>
        <dc:type
           rdf:resource="http://purl.org/dc/dcmitype/StillImage" />
        <dc:title />
      </cc:Work>
    </rdf:RDF>
  </metadata>
  <g
     inkscape:label="Camada 1"
     inkscape:groupmode="layer"
     id="layer1"
     transform="translate(0,-1032.3622)">
    <g
       style="font-size:23.27272606px;font-style:normal;font-variant:normal;font-weight:normal;font-stretch:normal;text-align:start;line-height:125%;letter-spacing:0px;word-spacing:0px;writing-mode:lr-tb;text-anchor:start;fill:#800000;fill-opacity:1;stroke:none;font-family:Heydings Icons;-inkscape-font-specification:Heydings Icons"
       id="text2985">
      <path
         d="m 2.2727277,1032.3622 c -0.6363666,0 -1.1742449,0.2197 -1.61363629,0.6591 -0.43939552,0.4394 -0.65909226178441,0.9773 -0.65909087542084,1.6136 l 0,15.4546 C -8.5178441e-7,1050.7258 0.21969589,1051.2637 0.65909141,1051.7031 c 0.43939139,0.4394 0.97726969,0.6591 1.61363629,0.6591 l 15.4545443,0 c 0.636344,0 1.174222,-0.2197 1.613637,-0.6591 0.439372,-0.4394 0.659069,-0.9773 0.65909,-1.6136 l 0,-15.4546 c -2.1e-5,-0.6363 -0.219718,-1.1742 -0.65909,-1.6136 -0.439415,-0.4394 -0.977293,-0.6591 -1.613637,-0.6591 z m 2.7499998,2.7727 4.9772725,4.9773 4.977272,-4.9773 2.25,2.25 -4.977272,4.9773 4.977272,4.9773 -2.25,2.25 L 10,1044.6122 l -4.9772725,4.9773 -2.2499998,-2.25 4.9772724,-4.9773 -4.9772724,-4.9773 z"
         style=""
         id="path3041" />
    </g>
  </g>
</svg>
