<?xml version="1.0" encoding="UTF-8" standalone="no"?>
<!-- Generator: Adobe Illustrator 14.0.0, SVG Export Plug-In . SVG Version: 6.00 Build 43363)  -->

<svg
   xmlns:dc="http://purl.org/dc/elements/1.1/"
   xmlns:cc="http://creativecommons.org/ns#"
   xmlns:rdf="http://www.w3.org/1999/02/22-rdf-syntax-ns#"
   xmlns:svg="http://www.w3.org/2000/svg"
   xmlns="http://www.w3.org/2000/svg"
   xmlns:sodipodi="http://sodipodi.sourceforge.net/DTD/sodipodi-0.dtd"
   xmlns:inkscape="http://www.inkscape.org/namespaces/inkscape"
   version="1.1"
   id="Layer_1"
   x="0px"
   y="0px"
   width="160"
   height="160"
   viewBox="0 0 160 160"
   enable-background="new 0 0 612 792"
   xml:space="preserve"
   inkscape:version="0.48.4 r9939"
   sodipodi:docname="foo-fighters-1.svg"><metadata
     id="metadata3097"><rdf:RDF><cc:Work
         rdf:about=""><dc:format>image/svg+xml</dc:format><dc:type
           rdf:resource="http://purl.org/dc/dcmitype/StillImage" /></cc:Work></rdf:RDF></metadata><defs
     id="defs3095" /><sodipodi:namedview
     pagecolor="#ffffff"
     bordercolor="#666666"
     borderopacity="1"
     objecttolerance="10"
     gridtolerance="10"
     guidetolerance="10"
     inkscape:pageopacity="0"
     inkscape:pageshadow="2"
     inkscape:window-width="1359"
     inkscape:window-height="876"
     id="namedview3093"
     showgrid="false"
     inkscape:zoom="0.62228968"
     inkscape:cx="105.98726"
     inkscape:cy="165.30503"
     inkscape:window-x="81"
     inkscape:window-y="24"
     inkscape:window-maximized="1"
     inkscape:current-layer="Layer_1" /><g
     id="g3104"
     transform="translate(-225.378,-316.3775)"><path
       clip-rule="evenodd"
       stroke-miterlimit="2.6131"
       d="m 305.378,316.257 c 44.129,0 80.12,35.992 80.12,80.121 0,44.128 -35.991,80.12 -80.12,80.12 -44.129,0 -80.12,-35.992 -80.12,-80.12 0,-44.129 35.991,-80.121 80.12,-80.121 l 0,0 z"
       id="path3085"
       inkscape:connector-curvature="0"
       style="fill:#414042;fill-rule:evenodd;stroke:#a7a9ac;stroke-width:0.4253;stroke-miterlimit:2.61310005" /><path
       clip-rule="evenodd"
       stroke-miterlimit="2.6131"
       d="m 305.378,331.257 c 35.868,0 65.121,29.253 65.121,65.121 0,35.868 -29.253,65.12 -65.121,65.12 -35.868,0 -65.121,-29.252 -65.121,-65.12 0,-35.868 29.253,-65.121 65.121,-65.121 l 0,0 z"
       id="path3087"
       inkscape:connector-curvature="0"
       style="fill:#ed1c24;fill-rule:evenodd;stroke:#ffffff;stroke-width:0.85070002;stroke-miterlimit:2.61310005" /><path
       clip-rule="evenodd"
       stroke-miterlimit="2.6131"
       d="m 322.124,353.301 c -12.542,10.797 -21.55,21.846 -22.777,33.453 l 7.178,-0.052 -3.193,5.373 -5.166,-0.043 c -15.649,23.142 -28.477,29.416 -37.68,17.042 11.939,0.262 19.435,-5.535 22.486,-17.393 l -7.115,0.14 c -2.581,-2.362 -3.544,-4.724 -2.893,-7.085 l 12.537,0.134 c 3.722,-10.21 13.057,-19.86 19.213,-24.709 l -21.109,0.102 c -4.934,1.464 -10.373,6.718 -16.923,20.305 -6.867,-8.079 -3.837,-23.228 11.816,-27.267 h 43.626 l 0,0 z"
       id="path3089"
       inkscape:connector-curvature="0"
       style="fill-rule:evenodd;stroke:#ffffff;stroke-width:0.42550001;stroke-linejoin:round;stroke-miterlimit:2.61310005" /><path
       clip-rule="evenodd"
       stroke-miterlimit="2.6131"
       d="m 361.262,380.815 c -12.543,10.797 -21.55,21.847 -22.777,33.453 l 14.449,-0.051 -5.92,5.373 -9.71,-0.045 c -14.74,23.164 -28.98,30.232 -38.892,17.045 11.939,0.26 20.646,-5.537 23.697,-17.395 l -8.326,0.141 c -2.58,-2.363 -3.241,-4.725 -2.591,-7.086 l 13.446,0.135 c 3.722,-10.211 13.056,-19.86 19.213,-24.709 l -21.108,0.101 c -4.935,1.465 -10.373,6.718 -16.923,20.306 -6.867,-8.08 -3.837,-23.228 11.815,-27.267 h 43.627 l 0,-10e-4 z"
       id="path3091"
       inkscape:connector-curvature="0"
       style="fill-rule:evenodd;stroke:#ffffff;stroke-width:0.42550001;stroke-linejoin:round;stroke-miterlimit:2.61310005" /></g></svg>