<?xml version="1.0" encoding="UTF-8" standalone="no"?>
<!-- Creator: CorelDRAW -->

<svg
   xmlns:dc="http://purl.org/dc/elements/1.1/"
   xmlns:cc="http://creativecommons.org/ns#"
   xmlns:rdf="http://www.w3.org/1999/02/22-rdf-syntax-ns#"
   xmlns:svg="http://www.w3.org/2000/svg"
   xmlns="http://www.w3.org/2000/svg"
   xmlns:sodipodi="http://sodipodi.sourceforge.net/DTD/sodipodi-0.dtd"
   xmlns:inkscape="http://www.inkscape.org/namespaces/inkscape"
   xml:space="preserve"
   width="100mm"
   height="25mm"
   style="shape-rendering:geometricPrecision; text-rendering:geometricPrecision; image-rendering:optimizeQuality; fill-rule:evenodd; clip-rule:evenodd"
   viewBox="0 0 100 25"
   id="svg2"
   version="1.1"
   inkscape:version="0.48.4 r9939"
   sodipodi:docname="ingressos_onmouseover.svg"><metadata
     id="metadata33"><rdf:RDF><cc:Work
         rdf:about=""><dc:format>image/svg+xml</dc:format><dc:type
           rdf:resource="http://purl.org/dc/dcmitype/StillImage" /></cc:Work></rdf:RDF></metadata><sodipodi:namedview
     pagecolor="#ffffff"
     bordercolor="#666666"
     borderopacity="1"
     objecttolerance="10"
     gridtolerance="10"
     guidetolerance="10"
     inkscape:pageopacity="0"
     inkscape:pageshadow="2"
     inkscape:window-width="640"
     inkscape:window-height="480"
     id="namedview31"
     showgrid="false"
     inkscape:zoom="0.92286664"
     inkscape:cx="177.16536"
     inkscape:cy="44.29134"
     inkscape:window-x="65"
     inkscape:window-y="24"
     inkscape:window-maximized="0"
     inkscape:current-layer="svg2" /><defs
     id="defs4"><style
       type="text/css"
       id="style6">
    .fil1 {fill:white}
    .fil2 {fill:#1F1A17;fill-rule:nonzero}
    .fil0 {fill:url(#id2)}
   </style><mask
       id="id0"><linearGradient
         id="id1"
         gradientUnits="userSpaceOnUse"
         x1="50"
         y1="4.4879"
         x2="50"
         y2="17.2547"><stop
           offset="0"
           style="stop-opacity:1; stop-color:white"
           id="stop10" /><stop
           offset="1"
           style="stop-opacity:0; stop-color:white"
           id="stop12" /></linearGradient><rect
         style="fill:url(#id1)"
         x="5.8361"
         y="1.384"
         width="88.3278"
         height="18.9746"
         id="rect14" /></mask><linearGradient
       id="id2"
       gradientUnits="userSpaceOnUse"
       x1="50"
       y1="0"
       x2="50"
       y2="25"><stop
         offset="0"
         style="stop-color:#1F1A17"
         id="stop17" /><stop
         offset="0.768627"
         style="stop-color:#8F8D8B"
         id="stop19" /><stop
         offset="1"
         style="stop-color:white"
         id="stop21" /></linearGradient></defs><g
     id="Camada_x0020_1"><metadata
       id="CorelCorpID_0Corel-Layer" /><rect
       class="fil0"
       width="100"
       height="25"
       rx="13.456"
       ry="13.456"
       id="rect25" /><path
       class="fil1"
       style="fill:#ffffff"
       d="m 17.606,20.2586 64.788,0 c 6.4185,0 11.6699,-4.2243 11.6699,-9.3873 l 0,0 c 0,-5.163 -5.2514,-9.3873 -11.6699,-9.3873 l -64.788,0 c -6.4185,0 -11.6699,4.2243 -11.6699,9.3873 l 0,0 c 0,5.163 5.2514,9.3873 11.6699,9.3873 z"
       id="path27"
       mask="url(#id0)"
       inkscape:connector-curvature="0"
       transform="matrix(1,0,0,-1,0,21.7426)" /><path
       class="fil2"
       d="M12.085 7.8541l1.6531 0 0 8.8858 -1.6531 0 0 -8.8858zm12.4601 6.7707c0,0.3354 -0.0638,0.6363 -0.1913,0.9028 -0.1276,0.2665 -0.3006,0.4965 -0.5192,0.69 -0.2186,0.1934 -0.4759,0.3417 -0.7719,0.4449 -0.296,0.1032 -0.6125,0.1548 -0.9496,0.1548 -0.4917,0 -0.9289,-0.1225 -1.3115,-0.3676 -0.3826,-0.245 -0.6513,-0.5868 -0.806,-1.0253l-1.8855 -5.4682c-0.0546,-0.1805 -0.1252,-0.3202 -0.2117,-0.4191 -0.0866,-0.0989 -0.2073,-0.1483 -0.3621,-0.1483 -0.4645,0 -0.6968,0.2579 -0.6968,0.7738l0 6.5773 -1.7624 0 0 -6.7321c0,-0.3267 0.0615,-0.6255 0.1844,-0.8963 0.123,-0.2708 0.2938,-0.5008 0.5124,-0.69 0.2186,-0.1891 0.4759,-0.3353 0.7719,-0.4385 0.2961,-0.1031 0.617,-0.1547 0.9632,-0.1547 0.4827,0 0.9153,0.1203 1.2979,0.3611 0.3825,0.2407 0.6513,0.5803 0.806,1.0188l1.8991 5.4811c0.0638,0.1806 0.1367,0.316 0.2186,0.4063 0.082,0.0902 0.2004,0.1354 0.3552,0.1354 0.4645,0 0.6968,-0.2579 0.6968,-0.7738l0 -6.6031 1.7625 0 0 6.7707zm5.4922 2.1151c-2.8509,0 -4.2763,-1.4788 -4.2763,-4.4365l0 -0.0387c0.0092,-2.9404 1.4391,-4.4106 4.2899,-4.4106l3.4156 0 0 1.5605 -3.8391 0c-0.7469,0 -1.3047,0.2321 -1.6736,0.6964 -0.3689,0.4643 -0.5533,1.1994 -0.5533,2.2053 0,1.9173 0.7377,2.876 2.2132,2.876l1.9675 0c0.1365,0 0.2686,-0.0301 0.3962,-0.0903 0.1274,-0.0602 0.2367,-0.1397 0.3278,-0.2386 0.0911,-0.0988 0.1639,-0.2128 0.2186,-0.3417 0.0547,-0.129 0.082,-0.2666 0.082,-0.4127 0,-0.2838 -0.0957,-0.5309 -0.2869,-0.7416 -0.1913,-0.2106 -0.4372,-0.316 -0.7377,-0.316l-1.4893 0 0 -1.5605 1.5712 0c0.3644,0 0.7036,0.0667 1.0178,0.1999 0.3143,0.1333 0.5875,0.3182 0.8197,0.5546 0.2323,0.2364 0.4168,0.5202 0.5534,0.8512 0.1366,0.331 0.2049,0.69 0.2049,1.0769 0,0.3267 -0.0705,0.6426 -0.2118,0.9479 -0.1411,0.3052 -0.3324,0.5782 -0.5737,0.8189 -0.2414,0.2407 -0.5192,0.4342 -0.8334,0.5804 -0.3143,0.1461 -0.6444,0.2192 -0.9906,0.2192l-1.6121 0zm7.077 -5.1974l3.2926 0c0.3007,0 0.5556,-0.1053 0.7652,-0.3159 0.2094,-0.2107 0.3142,-0.4622 0.3142,-0.7545 0,-0.1376 -0.0297,-0.2708 -0.0888,-0.3998 -0.0592,-0.129 -0.1366,-0.2407 -0.2323,-0.3353 -0.0957,-0.0946 -0.2072,-0.172 -0.3348,-0.2321 -0.1274,-0.0602 -0.2641,-0.0903 -0.4098,-0.0903l-3.3063 0 0 2.1279zm3.0467 -3.6884c0.5192,0 0.9655,0.0688 1.339,0.2063 0.3734,0.1376 0.6808,0.3267 0.9221,0.5675 0.2414,0.2407 0.419,0.518 0.5329,0.8318 0.1139,0.3138 0.1708,0.6513 0.1708,1.0124 0,0.3095 -0.0525,0.619 -0.1571,0.9286 -0.1048,0.3095 -0.2756,0.5868 -0.5125,0.8318 -0.2367,0.245 -0.5441,0.4428 -0.9221,0.5933 -0.378,0.1504 -0.8356,0.2256 -1.3731,0.2256l-0.765 0 3.7981 2.0119 0 1.8572 -6.0798 -3.4951 0 3.3145 -1.6531 0 0 -8.8858 4.6998 0zm11.695 1.5605l-4.9594 0c-0.1457,0 -0.2824,0.0279 -0.4099,0.0838 -0.1276,0.0559 -0.2391,0.1311 -0.3348,0.2257 -0.0955,0.0946 -0.173,0.2042 -0.2322,0.3289 -0.0592,0.1246 -0.0888,0.2557 -0.0888,0.3933 0,0.2923 0.1003,0.5395 0.3006,0.7416 0.2004,0.202 0.46,0.303 0.7787,0.303l4.9458 0 0 1.5605 -4.9594 0c-0.1457,0 -0.2824,0.028 -0.4099,0.0839 -0.1276,0.0559 -0.2391,0.1311 -0.3348,0.2257 -0.0955,0.0945 -0.173,0.2042 -0.2322,0.3288 -0.0592,0.1247 -0.0888,0.2558 -0.0888,0.3934 0,0.3267 0.1003,0.5932 0.3006,0.7996 0.2004,0.2063 0.46,0.3095 0.7787,0.3095l4.9458 0 0 1.5476 -4.6998 0c-0.5465,0 -1.0088,-0.0752 -1.3868,-0.2257 -0.378,-0.1505 -0.6831,-0.3504 -0.9153,-0.5997 -0.2323,-0.2493 -0.4007,-0.5309 -0.5055,-0.8447 -0.1048,-0.3138 -0.1571,-0.6341 -0.1571,-0.9608 0,-0.3611 0.0774,-0.7072 0.2322,-1.0382 0.1549,-0.331 0.4144,-0.5997 0.7787,-0.8061 -0.3643,-0.2063 -0.6238,-0.4771 -0.7787,-0.8124 -0.1548,-0.3354 -0.2322,-0.6621 -0.2322,-0.9802 0,-0.3783 0.0592,-0.7287 0.1775,-1.0511 0.1185,-0.3224 0.2983,-0.5997 0.5397,-0.8318 0.2414,-0.2322 0.5488,-0.4127 0.9222,-0.5417 0.3735,-0.1289 0.8152,-0.1934 1.3253,-0.1934l4.6998 0 0 1.5605zm9.4817 4.7331c0,0.8597 -0.2619,1.5067 -0.7857,1.9409 -0.5237,0.4342 -1.2546,0.6513 -2.1927,0.6513l-4.8364 0 0 -1.5476 5.1506 0c0.2914,0 0.5328,-0.1053 0.724,-0.316 0.1914,-0.2106 0.287,-0.4664 0.287,-0.7673 0,-0.2838 -0.0956,-0.5309 -0.287,-0.7416 -0.1912,-0.2106 -0.4326,-0.316 -0.724,-0.316l-2.6504 0c-0.5466,0 -1.0089,-0.0773 -1.3869,-0.2321 -0.3779,-0.1548 -0.683,-0.3568 -0.9152,-0.6061 -0.2324,-0.2494 -0.4008,-0.5267 -0.5056,-0.8319 -0.1047,-0.3052 -0.1571,-0.6083 -0.1571,-0.9092 0,-0.3611 0.0547,-0.6986 0.1639,-1.0124 0.1093,-0.3138 0.2847,-0.5911 0.5261,-0.8318 0.2413,-0.2408 0.5487,-0.4299 0.9222,-0.5675 0.3734,-0.1375 0.8243,-0.2063 1.3526,-0.2063l4.6997 0 0 1.5605 -4.9594 0c-0.1457,0 -0.2823,0.0279 -0.4099,0.0838 -0.1275,0.0559 -0.2391,0.1311 -0.3347,0.2257 -0.0956,0.0946 -0.173,0.2042 -0.2322,0.3289 -0.0592,0.1246 -0.0888,0.2557 -0.0888,0.3933 0,0.2923 0.1047,0.5395 0.3142,0.7416 0.2094,0.202 0.4645,0.303 0.7651,0.303l2.6095 0c0.9108,0 1.6304,0.2171 2.1587,0.6513 0.5282,0.4342 0.7924,1.0812 0.7924,1.941l0 0.0645zm9.3449 0c0,0.8597 -0.2619,1.5067 -0.7856,1.9409 -0.5238,0.4342 -1.2546,0.6513 -2.1928,0.6513l-4.8364 0 0 -1.5476 5.1506 0c0.2914,0 0.5329,-0.1053 0.7241,-0.316 0.1913,-0.2106 0.287,-0.4664 0.287,-0.7673 0,-0.2838 -0.0957,-0.5309 -0.287,-0.7416 -0.1912,-0.2106 -0.4327,-0.316 -0.7241,-0.316l-2.6504 0c-0.5465,0 -1.0088,-0.0773 -1.3868,-0.2321 -0.378,-0.1548 -0.6831,-0.3568 -0.9153,-0.6061 -0.2323,-0.2494 -0.4008,-0.5267 -0.5055,-0.8319 -0.1048,-0.3052 -0.1571,-0.6083 -0.1571,-0.9092 0,-0.3611 0.0546,-0.6986 0.1639,-1.0124 0.1093,-0.3138 0.2846,-0.5911 0.526,-0.8318 0.2414,-0.2408 0.5488,-0.4299 0.9222,-0.5675 0.3734,-0.1375 0.8243,-0.2063 1.3526,-0.2063l4.6997 0 0 1.5605 -4.9594 0c-0.1456,0 -0.2823,0.0279 -0.4098,0.0838 -0.1276,0.0559 -0.2391,0.1311 -0.3348,0.2257 -0.0955,0.0946 -0.173,0.2042 -0.2322,0.3289 -0.0592,0.1246 -0.0888,0.2557 -0.0888,0.3933 0,0.2923 0.1047,0.5395 0.3142,0.7416 0.2095,0.202 0.4646,0.303 0.7651,0.303l2.6095 0c0.9109,0 1.6304,0.2171 2.1587,0.6513 0.5282,0.4342 0.7924,1.0812 0.7924,1.941l0 0.0645zm4.9456 -4.7331c-0.7468,0 -1.3047,0.2321 -1.6736,0.6964 -0.3688,0.4643 -0.5533,1.1994 -0.5533,2.2053 0,1.9173 0.7378,2.876 2.2133,2.876l1.5849 0c1.4754,0 2.2132,-0.9587 2.2132,-2.876 0,-1.0059 -0.1867,-1.741 -0.5601,-2.2053 -0.3735,-0.4643 -0.9291,-0.6964 -1.6668,-0.6964l-1.5576 0zm1.1341 -1.5605c2.8326,0 4.2625,1.4702 4.2899,4.4106l0 0.0387c0,2.9577 -1.4254,4.4365 -4.2763,4.4365l-0.7378 0c-2.8509,0 -4.2762,-1.4788 -4.2762,-4.4365l0 -0.0387c0.0091,-2.9404 1.439,-4.4106 4.2899,-4.4106l0.7105 0zm13.6486 6.2936c0,0.8597 -0.2619,1.5067 -0.7857,1.9409 -0.5237,0.4342 -1.2546,0.6513 -2.1927,0.6513l-4.8364 0 0 -1.5476 5.1506 0c0.2914,0 0.5328,-0.1053 0.724,-0.316 0.1914,-0.2106 0.287,-0.4664 0.287,-0.7673 0,-0.2838 -0.0956,-0.5309 -0.287,-0.7416 -0.1912,-0.2106 -0.4326,-0.316 -0.724,-0.316l-2.6504 0c-0.5466,0 -1.0089,-0.0773 -1.3868,-0.2321 -0.378,-0.1548 -0.6831,-0.3568 -0.9153,-0.6061 -0.2324,-0.2494 -0.4008,-0.5267 -0.5056,-0.8319 -0.1047,-0.3052 -0.1571,-0.6083 -0.1571,-0.9092 0,-0.3611 0.0547,-0.6986 0.1639,-1.0124 0.1093,-0.3138 0.2847,-0.5911 0.5261,-0.8318 0.2413,-0.2408 0.5487,-0.4299 0.9222,-0.5675 0.3734,-0.1375 0.8243,-0.2063 1.3526,-0.2063l4.6997 0 0 1.5605 -4.9594 0c-0.1457,0 -0.2823,0.0279 -0.4099,0.0838 -0.1275,0.0559 -0.2391,0.1311 -0.3347,0.2257 -0.0956,0.0946 -0.173,0.2042 -0.2322,0.3289 -0.0592,0.1246 -0.0888,0.2557 -0.0888,0.3933 0,0.2923 0.1047,0.5395 0.3142,0.7416 0.2094,0.202 0.4645,0.303 0.7651,0.303l2.6095 0c0.9108,0 1.6304,0.2171 2.1587,0.6513 0.5282,0.4342 0.7924,1.0812 0.7924,1.941l0 0.0645z"
       id="path29" /></g></svg>