<?xml version="1.0" encoding="utf-8"?>
<!-- Generator: Adobe Illustrator 14.0.0, SVG Export Plug-In . SVG Version: 6.00 Build 43363)  -->
<!DOCTYPE svg PUBLIC "-//W3C//DTD SVG 1.1//EN" "http://www.w3.org/Graphics/SVG/1.1/DTD/svg11.dtd">
<svg version="1.1" id="Layer_1" xmlns="http://www.w3.org/2000/svg" xmlns:xlink="http://www.w3.org/1999/xlink" x="0px" y="0px"
	 width="612px" height="792px" viewBox="0 0 612 792" enable-background="new 0 0 612 792" xml:space="preserve">
<g>
	<polygon fill-rule="evenodd" clip-rule="evenodd" fill="#FFFFFF" points="209,300 401.756,300 401.756,492.756 209,492.756 
		209,300 	"/>
	<path fill-rule="evenodd" clip-rule="evenodd" d="M262.788,315.079c0.38,1.899,0.254,3.925,0.76,5.698
		c-0.253,4.305,0,8.104-0.506,12.408c-0.507,0.633,0.253,1.519-0.507,2.152v1.14h-0.126c0,1.772-0.253,2.786-0.759,4.305
		c0.633,0.506-0.381,0.886,0,1.519c0.759,0,1.393-1.139,2.151-1.392c2.913-1.899,5.698-4.052,9.244-4.432
		c2.278-1.013,4.811-1.773,7.216-2.406c0.381,0.38,0.381,1.013,0.761,1.52l-1.52,2.025c0.759,1.267-0.126,2.406-0.507,3.672
		c-1.518,0.633-2.405,2.026-4.05,2.659c-0.633,0-1.267,1.013-1.773,0.38c-1.14,0.126-2.786,0.632-3.798-0.38
		c-0.38,0.38-0.507-0.506-0.887-0.253c-2.025,1.519-4.052,2.532-6.203,4.051c-0.633,0.506-0.761,1.266-1.014,1.899
		c-1.899,1.646-4.558,2.152-7.09,1.773c-0.633-0.254-1.266-0.887-1.52-1.52c-1.013,0.127-2.405-0.379-3.039,0.507
		c-0.507-0.127-0.76,0.38-1.266,0.38c0.126,0.506,0.633,0,0.759,0.506c-0.759,0.506-1.14,1.646-2.025,1.899l0.252,0.38
		c-0.885,0-0.633,1.266-1.518,1.393l-0.127-0.126c-1.139,1.392-3.038,1.012-4.432,2.279c-1.013,0-1.139,0.887-2.152,1.013
		c-0.38,0.507-1.139,0.633-1.267,1.266c-0.759,0.253-1.646,0.633-2.405,0.633c-1.394,0.886-2.786,1.899-3.926,2.659
		c-1.519,1.139-2.532,3.165-3.671,4.685c-0.633,0.633-2.153,0-2.66,0.633l-0.633-0.126l-2.659-3.672
		c0.126-0.886-1.52-1.393-0.506-2.152c0.506,0.127,0.886-0.633,1.14-0.886c1.392-1.013,1.899-2.406,3.798-2.659l0.887-0.886
		c5.19-3.165,9.496-7.47,14.814-10.128l-0.381-0.38l-2.912-0.886c-0.506,0.506-1.392,0.253-2.025,0.126
		c-0.38-0.506-0.633,0.126-1.013,0.126c-1.266-1.266-2.786,0.127-4.305-0.253c0.379-1.013-1.013-0.507-0.633-1.52
		c-0.379-0.379-0.633-0.886-1.267-0.76c0.126-0.506,0.887-0.886,0.634-1.393c0.253-0.253,1.14-0.126,0.886-0.759
		c-0.507-0.127-0.886-0.38-0.76-1.013c1.014-0.506,2.026,0.76,2.785-0.38c0.127-0.633,1.013-1.392,1.521-1.646
		c1.519,0.254,2.406-0.126,3.545,1.14c1.266,0.127,2.152,0.886,3.418,1.14c1.393,0.507,2.912,0.76,4.558,1.013
		c0.507,0.38,1.394,0.253,2.027,0.506c0.126-0.886-0.633-1.393-0.761-2.278c-1.139-2.406-1.646-5.445-3.924-7.218
		c0-0.632-0.507-1.52-1.267-1.646c-0.379-1.14-0.507-2.406-0.886-3.545c0.127-0.38,0-0.886,0.253-1.266
		c1.646-0.633,3.292,0.253,4.939-0.38c2.404,0.38,3.67,2.406,5.064,4.179c1.393,1.139,2.025,3.038,3.166,4.558l0.633,1.519
		c0.633-1.266,0.759-2.912,1.013-4.558c0.379-0.886,0.126-2.279,0.505-3.039c-0.126-0.886,0.381-2.026,0.381-3.039
		c0.633-1.52,0-3.418,0.633-4.938c0.252-2.405,1.012-4.685,1.899-6.837c0.633-0.76,1.772-0.38,2.405,0L262.788,315.079
		L262.788,315.079z"/>
	<path fill-rule="evenodd" clip-rule="evenodd" d="M367.752,318.498c0.506,1.266,0.126,2.532-0.507,3.544
		c-0.506,1.014,0.507,2.153-0.379,3.166c-0.254,3.419-1.014,7.091-2.026,10.383c0.886,0.253,1.393-1.266,2.405-1.52
		c1.773-1.772,3.673-2.912,5.571-4.812c1.139-0.759,2.026-1.772,3.419-2.279l2.659-1.899c1.772-0.38,3.419-0.38,5.19,0.253
		c0.38,0.886,1.773,1.899,0.761,3.039c-0.634,0.127-1.014,0.886-1.395,1.52c-1.771,0-2.911,1.773-4.557,1.646
		c0,0.76-0.633,1.14-1.141,1.394h-0.506c0,1.013-1.773,1.266-2.027,2.405c-2.15,0.887-2.404,3.799-3.798,5.318h2.66l9.749-0.253
		c0.633-1.139,1.394,0.633,2.026-0.126c1.52-0.633,1.139,1.519,2.405,1.139c0.885,0.633,0.633,1.899,1.394,2.659
		c0.253,0.886-0.634,0.506-1.014,0.759s-0.761,0.633-1.266,0.76c0.126,0.38,0.886,0.38,0.759,0.886
		c-1.013,0.633-1.772-0.506-2.911-0.126c-0.634-0.38-1.774-0.38-2.407-0.506c-0.505,0.76-1.392,1.013-2.024,0.506
		c-0.508,0.379-1.267,0.76-1.267,1.393c-1.141-0.252-0.887,1.266-2.025,1.14c-0.761,0-1.52,0.253-2.153-0.254
		c-0.633,0.76-1.898,0.633-2.66,0.38c-0.252-0.253-0.633-0.633-1.138-0.38c-0.128,0.254-0.38,0.507-0.38,0.76
		c2.532,1.139,4.559,2.912,7.216,3.925c0.633,1.012,2.532,0.76,2.532,2.153c0.381,0.379,0.254,1.012,0.128,1.519h-0.38
		c0.506,1.266-1.14,0.253-0.887,1.266c-0.253,0.38-0.761,0.126-1.14,0.253c-0.126,0.38,0.887,0.76,0.127,1.013
		c-0.886,0-1.647,0-2.152,0.506c-1.52-1.646-4.052-2.406-6.204-3.418c-2.278-1.139-4.686-1.52-6.838-2.913
		c-0.886,0.253-1.014-1.013-1.898-0.506c-1.772-0.887-3.039-2.533-4.559-3.545c0.254-0.633-0.633-0.38-0.76-0.633
		c-0.633,0.886,1.014,0.38,0.506,1.393c-1.139-0.127-1.646-0.507-2.784-0.76c-1.394-0.76-3.039-0.633-4.686-1.014
		c-1.899,0.254-3.293,0.507-5.192,0.507c-0.252-0.507-0.505,0-0.758,0c-0.633-0.76-1.774-0.633-2.659-1.013
		c1.139-1.773-1.394-2.406-0.127-4.052c-0.506-0.38,0.379-0.507,0.127-0.887c0.76-1.393,2.532-0.379,3.671-1.013
		c2.026,0.126,4.306-0.38,6.077,0.379c1.774,0.38,3.673,0.76,5.445,0.887c0.38,0.506,1.014,0.253,1.519,0.253
		c-0.505-1.267,0.887-3.292-0.379-4.559c-0.254-1.393,0.633-2.279,0.379-3.672c0.887-2.152,1.267-4.558,1.774-6.837
		c0.379-0.76,0.253-1.773,0.506-2.533c1.013-0.379,0.38-1.646,0.885-2.279c0.761-1.52,1.647-3.039,1.394-4.812
		c0.254-1.646,1.52-2.785,2.533-4.178C366.991,314.572,366.486,317.357,367.752,318.498L367.752,318.498z"/>
	<path fill-rule="evenodd" clip-rule="evenodd" d="M326.35,340.275l-0.127,0.379c0.252,0.253,0.76-0.126,0.885,0.38
		c-0.758,0.633,0.761,1.14-0.125,1.773c-0.127,1.013,0.886,0.506,1.14,1.392c0.506,0.127,0.633,0.76,0.885,1.267
		c1.773,0.506,3.04-0.38,4.813-0.38v0.126c0.633-0.506,1.266,0.76,2.026,0.633c0.506,0.38,0.886,1.013,1.52,0.76
		c-0.508,1.013,1.138,1.392,1.138,2.279c-0.505-0.126-0.886-1.14-1.519-0.633c1.014,0,0.633,1.267,1.519,1.267
		c0.508,0.126,0.254,0.633,0.254,0.886l-0.633-0.38l-0.126,0.38c-0.508-0.633-1.267-0.507-2.027-0.507l-1.013,0.507
		c1.141,1.013,2.659,2.025,3.673,3.418c0.505,0.127,1.266,0,1.771,0.506c1.141,0,1.773,1.141,2.913,1.394
		c0.38,0.38,0.885,1.139,1.646,0.633l0.127-0.127c0,0.887,1.646,0.38,1.393,1.646c1.013,0,0.761,1.14,1.646,1.393
		c2.532-2.533,5.064-4.685,8.102-6.331c0.382-0.126,0.509,0.38,0.888,0.633c0.379,1.519-1.267,1.266-1.646,2.278
		c-1.646,2.026-3.165,4.179-4.812,6.332c0.253,1.012,1.267,0.379,1.899,0.506c0.759,1.013,0.126,2.785,1.013,3.671
		c-0.38,1.14-0.38,2.786,0,3.925c-0.887-0.38-0.508,0.886-1.013,1.266v0.886h-0.128c-0.252,0.253,0.761,0.38,0.254,0.886
		c-0.126,1.266,2.278,2.786,0.379,4.052c0.381,0.633-0.633,1.013,0,1.519c-0.125,0.634-0.633,0.507-1.266,0.507l-0.126-0.253
		c-0.379,0.506-0.633,0-1.141,0.253v0.76c-1.392,0.38-2.151-1.013-3.29-1.393c-0.381-0.38-0.381-1.519-1.142-1.139
		c-1.012,1.899,1.267,3.039-0.125,4.685c0-0.127-0.127-0.253-0.127-0.253c-0.633,0.506,0.506,0.633,0.38,1.139
		c1.014,0.506-0.128,2.279,1.014,2.913v0.38l-0.634-0.127c0-0.127-0.127-0.253-0.127-0.253c-0.253-0.127-0.381,0.126-0.381,0.38
		l0.254,0.506c-0.506,0.507-0.379-1.013-1.139-0.38c0.127,1.646-1.772,1.52-2.152,2.912c-0.761,0.38-0.634-0.38-1.141-0.76
		c0.634-1.139-1.012-1.519-0.506-2.658l-0.886-2.406c-0.253-0.253-0.38,0.127-0.507,0.254c0.254,0.38,0.507,0.633,0.379,1.139
		c-0.125,0.252-0.506,0.127-0.506,0.38c0.127,0.38,0.634,0.253,0.506,0.633c-0.633,0.126-0.125,0.759-0.506,0.886
		c-0.886,1.013-1.898,1.519-3.039,1.772c0.127,0.38-0.126,0.76,0.127,0.887c0.633,0,0.253-0.76,0.886-0.76
		c0.128,0.38,0.128,0.886-0.253,1.14c-1.519,0.253,0,2.279-1.393,2.279c-0.506-1.519-0.126-3.672-2.025-3.924
		c-0.761,1.139-2.532,0.759-2.66,2.025c-1.519,3.672-5.316,4.432-7.976,6.33c-0.634,0.127-0.127,0.633-0.127,0.887
		c-0.507,1.014-1.266,1.9-1.266,3.039c-1.266,1.52-2.279,3.418-4.179,3.545c-0.633-0.506-0.127-1.393-0.381-2.025
		c-0.759,0.379-1.771,1.139-2.151,2.152c-1.646,1.646-2.785,3.545-4.685,5.191c-0.761,0.125-1.394,0.379-2.026,0
		c-1.013-1.266-0.379-3.039,0.381-4.305c2.025-2.785,4.938-5.191,7.343-7.852c0.76,0.129,0.38-1.012,1.139-1.012
		c1.267,0,1.395-1.899,2.532-1.772c0.381-0.506,0.762-0.76,1.014-1.267c1.646-0.759,2.659-2.532,4.051-3.671
		c1.267-1.014,2.786-2.026,4.307-2.66c0.125-1.392,0.125-2.786,0-4.178c-0.633-0.126-0.887,0.886-1.393,1.013
		c-3.419,2.659-7.725,3.292-11.396,5.825c-2.28,0.379-4.432,2.278-6.838,2.405c-0.886,0.38-0.379,1.393-1.266,1.772
		c-0.887,0.506-0.887-0.886-1.773-0.759c-0.506-0.887-1.771,0.886-1.771-0.633c-0.633-0.633-1.266,0.506-1.646-0.507
		c-0.38-0.506-0.38-1.266-0.886-1.519c-1.646,0.507-3.545,0.507-5.444,0.38c-2.152-0.634-4.559-1.393-6.079-3.419
		c-1.266,0-2.025-1.266-3.417-1.266c-0.381-0.761-1.266-1.14-2.026-1.267c-0.253,0.253-0.126,0.886,0,1.267
		c1.646,0.126,2.406,1.772,3.545,2.785c0.76,1.393,2.406,1.899,3.165,3.418c0.761,1.14,1.773,1.773,2.153,3.165
		c-0.126,1.266,1.394,2.027,1.013,3.545c0.253,0.127,0.253,0.381,0.253,0.635l-0.505,0.252c0.759,1.266,2.279,1.9,3.291,3.166
		c0.633,0.76-0.507,1.393-0.126,2.406c-0.761-0.254-1.266,0.633-2.027,0c0,0.633,0.761,1.391,1.013,2.152l-1.393,2.023
		c0.379,0.508,0.253-0.379,0.759,0c1.014-0.379,1.266,0.381,1.647,1.141c-0.127,0.127-0.253,0.254-0.253,0.381l0.126,0.125
		l0.253-0.125c-0.126,0.379,0,0.633,0.254,1.012c0.506-2.404,0.759-5.191,0.632-7.723c0.506-0.254,0.254-0.887,0.38-1.393
		c-0.633-1.014,0.253-2.279,0.379-3.291c2.026-0.887,0.887-4.307,3.419-4.18c0.126,1.266-0.254,2.658,0.379,3.799
		c-0.253,1.014,0.633,2.025-0.126,3.039c-0.253,0.379-0.507,0.885-0.633,1.393c-0.253,0.885-1.013,1.771-0.633,2.531
		c-0.507,4.813,0,10.002-0.38,14.814c-1.646,2.152-0.76,4.686-1.014,7.471c0.633,0.252,0.127,1.012,0.507,1.266
		c0.633-1.52,0.379-3.166,1.14-4.686c0.379-2.783-0.253-5.949,0.633-8.482c0-0.254,0-0.506,0-0.887c0.38,0,1.139-0.127,1.393,0.254
		l0.253,1.012c0.633-1.012,0.505-2.404,0.505-3.799c0.633-0.377,0.633-1.391,1.014-2.15c-0.381-0.127-0.76,0-0.886,0.252
		l-0.128,0.127l0.381,0.254c-0.253,0.127-0.507,0-0.633-0.127c-0.761,0.127-0.127,1.012-0.381,1.52
		c-0.759-0.381-1.646-0.508-1.772-1.52c0.253-1.393-0.633-3.039,0.633-3.926c0.633,0.381,1.646,0.254,2.279,0.887
		c1.141,0.508,0,2.406,1.52,2.785c0.76-0.633,1.646,0.127,1.899,0.889c-0.507,1.518,1.266,2.404,0.126,3.67
		c0.253,0.76-0.759,1.139-0.759,1.646c-0.887,0.506-0.761,1.391-1.646,1.646c-0.255,0.885-1.267,1.266-1.52,1.771
		c-0.887,0.633-0.38,2.531-0.507,3.293l-0.253,0.252v6.457c1.647,0.889,3.292,2.914,4.938,4.053
		c3.039,3.926,7.09,8.357,9.622,12.662c2.532,1.645,4.432,4.178,6.839,6.076c0.633,0.76,1.139,1.773,1.645,2.279
		c0.761,2.025,2.659,3.545,2.912,5.824c2.153-0.885,4.179-2.785,6.838-2.785c0.126-0.127,0.38-0.381,0.634-0.127
		c-0.634,0.506-1.899,0.254-2.407,1.139c0.761-0.379,1.899-0.125,2.786-0.252c-0.254,0.127-0.506,0.76-0.379,1.141
		c-1.141,0.76-2.153,0.633-2.912,1.771c0,0.506,0.505,0.127,0.759,0.254c0.507-0.635,1.52,0,2.153-0.508
		c1.14-0.252,2.278-0.885,3.418-0.758c1.139-0.508,3.165-0.508,4.304,0c1.014-0.127,0.761,1.012,1.394,1.518l-0.127,0.381
		l1.52,0.758l-0.126,0.254c0.253,0.254,1.267,0.129,0.887,0.887c-0.381-0.125-0.507,0.381-0.507,0.633
		c0.126,0.381,0.38,0.76,0.253,1.141c-0.253,0.127-0.633,0-0.761,0.252c0.254,0.76,0.634,1.52,1.267,1.773l-0.379,0.379
		l-0.127-0.127c-0.761,0.508-0.633,1.648-1.394,2.281c0.254,0.633-0.506,0.885-0.633,1.139c-1.392-0.254-1.013,3.039-2.533,1.139
		c-0.633,0.633-1.138-0.252-1.771,0.381c0.38,0.125,0.253,0.506,0.253,0.885c-0.506,0.381-0.127,1.141-0.253,1.773
		c0.126,0.254,0.38,0.254,0.253,0.506c-0.253,0.381-0.506,0.381-0.633,0.127c-0.381,0.506,0.127,1.521-1.015,1.141
		c-5.064-4.307-8.734-10.51-15.318-10.764c-0.381,0.127,0,1.016-0.633,0.76c0-0.506-0.634-0.633-1.014-0.506
		c-1.013,0.633-1.773-0.379-2.912,0c-0.507,0.762-0.507,1.646-1.647,1.771c-0.125-0.506,0.634-0.758,0.634-1.266
		c0.254-0.633-0.253-1.139-0.38-1.771c-1.012,0.127-0.379-1.014-0.506-1.52c0.38-0.508-0.253-1.393,0-2.152
		c0.38-0.506,0.252-1.141,1.014-1.393l7.343-0.127c-1.773-2.152-2.531-4.432-4.812-5.951c1.393,1.9,1.646,3.166,3.671,4.811
		c-0.758,0.381-1.391-0.76-2.278-1.393c-2.658-2.406-4.938-5.57-7.343-8.23c-2.026-0.758-3.799-2.404-5.697-2.91
		c-0.634-0.506-0.634-1.014-0.761-1.646c0-0.508,0.506-1.014,1.14-1.141c0.379,0,0.887,0.127,1.14-0.125
		c-1.14-1.393-1.899-3.293-3.419-4.559c0-0.506-0.759-0.76-1.012-1.266c-1.141-2.025-2.66-3.291-4.179-4.939
		c-0.633,0.76-0.507,1.773-0.76,2.658c-0.253,0.256-0.126,0.508-0.506,0.381c-0.633-0.887-0.127-2.279-0.507-3.291
		c-0.507,0.76-0.253,1.9-1.012,2.533c0.253,0.633-0.254,1.01-0.38,1.518c-1.647-0.125-0.507-2.531-0.761-3.672
		c0.254-0.127,0.127-0.506,0.127-0.76l-0.127-0.125c-0.633,2.025-3.166,3.797-4.178,5.697c-1.392,2.15-3.292,4.432-4.178,6.838
		c0.887,0,0.633,0.506,1.139,1.012c0.381,0.887-0.885,1.393,0,2.152c-0.505,2.025-2.278,3.418-3.671,4.811
		c-1.14,1.266-1.646,2.787-3.292,3.42c-0.506,0.252-0.38,1.139-1.139,1.012c-0.507-0.127-2.026,0.76-2.786,0.887l-1.392,1.393
		c1.518,0.508,3.166,0.508,4.304,1.773c1.14,0.252,2.026,0.76,2.786,1.9c0.253,0.252,0.759,0.252,1.013,0
		c0.507,1.01,1.266,2.277,0.76,3.416c-0.507,0-0.886,0.254-1.14,0.633c-0.125,0.127,0,0.635-0.379,0.508
		c-0.76-0.254-0.379-1.141-0.76-1.52c-0.506,0.379,0,1.266-0.759,1.52c-0.633-0.508-1.646-0.381-2.279-1.141
		c-0.887-0.252-1.899,0.887-2.279-0.252l-0.253,0.885c-1.52,0,0.126-2.658-1.52-2.025c-0.887,0.635-2.026-0.125-3.04,0.381
		c-0.759-0.254-1.392,0.506-2.279,0.254c-0.887,0.633,0.761,1.266-0.253,1.898c0.253,0.252,0.381,0.76,0.253,1.141
		c-1.266-0.635-2.405-0.889-3.798-0.508c-2.786,1.268-5.191,3.418-7.851,4.939c-0.633,0-1.772,0.252-2.405-0.256
		c-1.012,0.381-1.899,1.646-3.292,1.014c-0.379-0.125-1.139-0.381-1.012-1.139c-0.38-1.014,0.379-1.773,0.507-2.658
		c-0.887-1.016-1.773-1.521-2.152-2.658l0.253-0.256c-0.507-0.506-1.899-0.76-1.266-2.025c0.759-1.393,2.279-2.279,3.798-2.658
		c1.646-1.393,3.671-1.52,5.824-1.773c1.394,1.014,3.545,0.381,5.318,0.508c1.52-0.254,2.912-0.508,4.432-0.635l1.14-0.125
		c0.125-2.406,2.532-3.672,3.798-5.697c2.279-1.395,1.772-4.18,3.671-5.697c1.394-2.66,3.419-5.32,6.077-7.598
		c1.899-3.166,4.685-6.33,7.345-9.117c0.505,0,0.759-0.633,1.139-1.012c1.14-0.633,2.153-1.266,3.419-1.395
		c0-1.52-0.759-2.531-0.759-3.926c-0.507-0.377,0-1.01-0.507-1.391c-0.126-1.268-0.253-2.658-0.507-3.799
		c-0.506-0.381-0.126-1.393-0.38-2.025c-0.126-1.266-0.253-2.914,0.253-4.053c0-0.379-0.253-0.633-0.633-0.887
		c-0.379,0.381-0.887,0.127-1.266,0.254c-0.759-0.379-1.52-1.012-1.646-2.025c-0.254-1.645,0.633-2.785,1.012-4.178
		c-0.887,0-2.406-0.508-2.912-1.646c-1.52-1.52-2.027-3.672-2.912-5.445c-1.014-0.506-1.773-1.52-2.28-2.404
		c-0.886-0.381-1.772-1.268-2.152-2.152c-1.394-0.762-1.14-2.153-2.406-2.913c-0.507-0.633-0.76-1.646-1.52-1.9
		c-0.379,0.127-0.253,0.507-0.253,0.76c-0.505-0.127,0-1.266-0.759-1.14c0.253-2.025-1.773-2.912-2.279-4.432
		c-0.127,0.887-0.507,1.52-0.507,2.533c-0.126,0-0.379,0-0.379,0.127l0.507,0.38c0,0.379-1.014,0.633-0.381,1.013
		c0.381,2.026-0.506,3.166-0.759,4.558c-0.507,0-0.633,0.381-0.507,0.76c0.127,0.633,0.76,0.76,1.266,0.76
		c0.127,0.379-0.252,0.633-0.506,0.633l-0.379-0.254c0.126,0.887-0.76,1.52-0.127,2.279l-0.126,0.887
		c-0.127,0.379,0.759,0.887,0.126,1.139c0.379,0.635,0.253,1.393,0.633,1.52c-0.633,0.508,0.633,0.76-0.126,1.141
		c0.254,0.379,0.254,0.633,0.126,1.012c-1.139-2.912-1.899-6.582-2.153-9.875l-0.506-0.506c-0.633,0.633-1.14,0.887-2.153,0.758
		c0-0.125-0.126-0.125-0.126-0.252c-0.253,0.381-0.76,0.76-1.014,0.127c-0.252-0.254-0.126-0.76-0.126-1.14h0.38
		c0.379-0.506-0.759-1.139,0.253-1.266c0.633-1.899,0.507-4.052,0.887-5.951c-0.887-1.393-0.507-3.546-0.253-5.318
		c0-0.886,0.507-1.772,0.38-2.532c-1.139,0.253-0.254,1.772-1.392,2.025c-0.128,1.012-0.887,1.772-1.646,2.406
		c-1.014-0.253-2.406,0.38-3.166-0.506c-1.14,0.379-1.394-1.393-2.66-0.887c-0.759-3.291,1.899-5.57,3.04-8.355
		c-2.912-3.292-6.078-6.838-8.357-10.383c-1.519-2.279-3.545-4.558-4.304-7.217c-0.507-0.886-0.887-1.899-1.14-2.785
		c-0.38-1.14-0.759-1.899-0.887-3.166c0.38,1.013,1.394-0.506,1.773,0.633c0.507-0.253,0.887-0.507,1.52-0.38
		c-0.127,0.633,0.633,0.38,1.013,0.633c0.887,0.759,1.392,2.026,1.899,2.912c0,0.633,0.126,1.14,0.507,1.646
		c1.646,4.305,5.95,7.217,7.849,11.396c0.633,0.127,0.127,0.886,0.761,1.139c0.125-1.392-1.52-1.899-1.394-3.292
		c-0.759-1.013-1.519-2.026-1.646-3.166l-4.178-4.305c-0.126-0.379,0.253-1.013,0.759-0.886c1.14,1.266,2.28,1.646,3.165,2.913
		c1.773-0.38,1.773,2.025,3.293,2.405c0.886,1.773,1.52,3.672,2.405,5.571c0.633,0,0.76,0.759,1.52,0.506
		c0.507-0.506-0.126-1.646,0.76-1.899h0.633c0.379,0.886-0.761,0.507-0.761,1.267c0.379-0.126,1.013-0.253,1.14-0.76
		c-0.253-0.76,0.505-1.14,0.253-2.026c0.759-0.127,0.885-1.013,1.392-1.266c0.38-0.38,0.887-0.886,1.52-1.266l2.279-2.026
		c-1.266-0.126-2.658,0.38-4.178,0.76c-0.633,0.38-0.379-0.633-1.013-0.506c0.252-1.14-1.899-1.013-0.633-2.279
		c0.633-0.38,0.379-1.013,0.379-1.646c-0.633-0.38,0.126-0.76,0.126-1.266c1.013-0.507,2.153-0.76,3.419-1.266
		c0.759-0.633,1.899-0.76,2.786-1.14c2.025-1.14,4.686-0.633,6.584-2.026c-0.127,0.126,0,0.126,0.126,0.253
		c1.266-0.76,2.786-0.633,4.052-1.14c0.505,0.126,0.887,0,1.139-0.38l-0.506-0.38c-2.66,0.38-5.192-1.14-6.71,1.266
		c-0.761,0.126-1.647-0.253-2.153,0.253c-1.646-0.379-3.166,0.887-4.811,1.013c0-0.253,0.759-0.76,0.126-1.013
		c-0.38,0-0.38,0.507-0.633,0.253c-0.379-0.506-0.886-1.14-0.379-1.772c-0.127-1.013-0.379-1.393,0-2.28
		c1.139,0,0.759-1.266,1.139-1.772c-0.252-0.76,0.381-1.14,0.633-1.772c0.507,0,0.761-0.633,1.266-0.759
		c1.773-0.38,3.166-1.393,4.938-1.14c0.126,0.126,0.254,0.126,0.38,0l0.253-0.253c0.253,0.253,0.38,0.379,0.759,0.379
		c0.381-1.139,1.773-0.126,2.406-0.886c0.759,0.126,1.646,0.126,2.153-0.253c1.139-0.38,1.646,1.013,2.912,0.633
		c1.266,0.253,2.025,1.772,3.419,1.139c0.506,0.253,1.139,0.253,1.392,0.886c0.127,0.38-0.253,0.38-0.506,0.38
		c-0.127-0.126-0.253,0-0.253,0.126c0.886,0.887,1.012-1.14,1.772-0.126c0.253-0.253,0.633-0.253,1.014-0.253
		c0.505,0.253,0.759,0.76,1.518,0.507c1.014,1.013,3.293,1.013,3.04,3.039c0.253,0.633,0.379,1.772-0.126,2.406
		c0,0.127-0.507,0-0.38,0.38c0.127,0.38,0.886,0.127,1.14,0.506c0.633,0.38,0.759-0.633,1.392-0.506c0-0.76,0.254-1.393,0.887-1.899
		c0.887,0.127,0.634-1.013,1.394-1.14c-0.127-0.126-0.253-0.253-0.381-0.126c0.887-1.899,2.785-2.153,4.179-3.672
		c0.506,0.38,0.633-0.633,1.266-0.253c0.507-0.633,1.519-0.506,2.152-1.013c0.633,0.126,1.014-0.253,1.52-0.633
		c0-0.759,0.887-0.253,1.267-0.633c1.14-1.14,2.911-1.393,4.305-2.405c1.014-0.38,1.52,0,2.532,0.252
		C326.223,339.768,326.475,340.022,326.35,340.275L326.35,340.275z"/>
	<path fill-rule="evenodd" clip-rule="evenodd" fill="#FFFFFF" d="M327.361,345.846c-1.52,2.152-3.798,2.785-6.584,2.405
		c-0.126,0.507-0.506,1.013-1.013,1.013c-0.126,0.127-0.126-0.126-0.379-0.253c1.266-0.76,2.278-1.646,3.671-2.405
		c0.507,0.253,0.886-0.38,1.267-0.253C325.336,346.353,326.475,346.606,327.361,345.846L327.361,345.846z"/>
	<path fill-rule="evenodd" clip-rule="evenodd" fill="#FFFFFF" d="M280.894,350.784c-0.38-0.127-0.633,0.633-0.886,0
		C280.261,350.404,280.894,350.277,280.894,350.784L280.894,350.784z"/>
	<path fill-rule="evenodd" clip-rule="evenodd" fill="#FFFFFF" d="M309.256,356.228c0.126,1.013,1.14,0.887,1.772,1.14
		c0-0.38,0.38-0.38,0.506-0.76c0.128-0.506,0.255-1.52-0.126-1.899c1.139-0.887,2.785-0.253,3.925-0.76
		c1.013,0.507,2.026-0.633,3.419-0.253c1.52,1.393,3.291-0.126,4.558,1.14c-0.253,0.253-0.634,0.633-1.139,0.506
		c0.126-0.886-0.887-0.506-1.14-0.886c-1.14-0.253-2.025,0.633-3.166,0c0,0.506-1.013,0.759-0.506,1.266
		c-0.381,0.253-0.507,0.886-0.507,1.393c0.634,0.76,1.52,0.253,2.153,0.506c0.633,0.253,1.392,0,2.151-0.253
		c0-0.507,0.634-0.38,0.886-0.633c0.381-0.126,0.381,0.253,0.633,0.506v0.38c1.395,1.393,3.42,1.646,5.065,2.406
		c1.141,1.013,3.165,1.266,3.926,2.532c-1.394,0.127-2.152-1.899-3.799-1.139c-0.633,0.76,0.76,1.266,0.634,2.025l1.266,1.393
		c-1.52,3.165-3.165,6.078-3.039,9.876c0.254,0.759,1.013,0.38,1.394-0.127l0.885-1.646c0.508,0.127,0.508,0.633,0.633,1.14
		c0.381,0.633,0.761,1.392,0.887,2.279c-0.633,0.379-1.266,0.886-1.645,1.646c-1.646,1.899-3.419,3.166-5.318,4.558
		c-0.76,0.38-1.393,1.139-2.279,1.013c-0.887,0.506-2.025,0.38-2.912,0.76c-0.507,0.253-1.013,0.633-1.646,0.633
		c-1.267,0.379-2.152,1.013-3.419,1.14c0.634-0.38-0.507-1.14-0.38-1.9c-0.381-0.506-1.014-1.393-1.772-0.759
		c-0.127,0-0.254,0.253-0.38,0c-0.128-1.013,1.393-1.646,0.633-2.533c0.506-1.266-1.013-0.253-1.14-1.266
		c-1.392,0.38-2.152-1.519-3.165,0c-0.38,0-0.887-0.126-1.013,0.38l-0.126,0.507c-0.127-0.38-0.76-0.126-0.886,0
		c-0.127-0.887-1.394-0.126-1.899-0.76c-0.507,0.126-0.379,0.76-0.633,1.013c-0.633-0.38-0.254-1.646-1.14-1.773
		c-0.759,2.279-0.506,4.685-0.126,7.091c-0.76-0.38-1.9-0.127-2.786-0.253c-1.773-0.76-3.165-2.532-5.19-2.659
		c-0.253-0.38-0.633-0.126-1.014-0.253c-3.798-2.532-7.216-6.205-9.115-10.382c-0.253-0.76,0.506-1.013,0-1.773l0.126-0.126
		c1.14,1.266,1.266,3.039,2.658,4.052c0,1.013,1.014,1.139,1.52,1.646c-0.379-2.532-1.899-4.938-2.532-7.344
		c0-0.886,1.52-1.393,1.14-2.279c-0.507,0-0.887,0.886-1.266,0.127c0.759-0.253,0.253-1.013,1.013-1.266
		c-0.759-0.253-0.507-0.886-1.013-1.14c1.392-1.139,3.545-1.392,4.432-3.292c-0.254-1.14-1.899-0.633-2.406-1.52
		c0.127-0.379,0.127-1.14-0.506-0.887h-0.253c2.786-1.139,5.57-2.025,8.356-2.658c1.14-0.507,1.899,0.886,2.786,0
		c0.633-0.254,1.14-0.507,1.646-0.76c0,0.633,0.127,1.266,0.76,1.519c1.393-0.506,1.646,1.013,2.405,1.52
		c0.633,0.126,1.773,0.253,2.279-0.126c-0.252-0.253-0.759-0.506-0.506-1.013c-0.76-0.76-1.646-1.393-1.52-2.532
		c0.633-0.633,1.52,0.38,2.406,0c0.633-0.633,1.899-0.38,2.151-1.519c0.382-0.633,1.141,0.38,1.647,0.632
		C308.877,354.583,309.51,355.215,309.256,356.228L309.256,356.228z"/>
	<path fill-rule="evenodd" clip-rule="evenodd" d="M315.84,358.634c-0.761,1.139-1.646,2.025-2.279,3.166
		c-1.014,0.253-2.152,0.633-3.038,1.519c-1.52,0.253-2.406-0.38-3.925-0.253c-0.633-0.38-1.14-1.013-1.899-0.507
		c-0.507-0.126-1.014-0.506-1.52-1.013c0-1.14-1.266-1.646-0.379-2.659c1.392-0.253,2.532,0.76,4.05,0.38
		c0.507,0.633,1.015-0.38,1.773,0c0.507-0.507,1.52,0.126,2.024-0.507c0.761,0,1.899,0.38,2.532-0.379
		c0-0.633,0.762-0.76,1.014-1.14C314.827,357.494,316.346,357.241,315.84,358.634L315.84,358.634z"/>
	<path fill-rule="evenodd" clip-rule="evenodd" fill="#FFFFFF" d="M334.452,364.585c-0.886,0.127-1.772-0.506-2.405-1.266v-0.76
		C332.934,362.813,333.566,363.825,334.452,364.585L334.452,364.585z"/>
	<path fill-rule="evenodd" clip-rule="evenodd" fill="#FFFFFF" d="M282.034,369.27l-0.254,0.253c-0.633-0.633,0.507-1.266,0-2.025
		C282.414,367.877,281.908,368.764,282.034,369.27L282.034,369.27z"/>
	<path fill-rule="evenodd" clip-rule="evenodd" fill="#FFFFFF" d="M269.373,371.929v0.506c-1.013-0.38-1.14-1.393-1.52-2.279
		C268.993,370.409,268.232,371.802,269.373,371.929L269.373,371.929z"/>
	<path fill-rule="evenodd" clip-rule="evenodd" fill="#FFFFFF" d="M280.388,378.006l-0.127,0.126l-0.252-0.506
		C280.388,377.626,280.388,377.88,280.388,378.006L280.388,378.006z"/>
	<path fill-rule="evenodd" clip-rule="evenodd" fill="#FFFFFF" d="M332.3,379.652l-0.253,0.127l0.125-0.38
		C332.3,379.399,332.172,379.652,332.3,379.652L332.3,379.652z"/>
	<path fill-rule="evenodd" clip-rule="evenodd" fill="#FFFFFF" d="M280.514,382.817c-0.126,0.127,0,0.507-0.126,0.76
		c-0.127-0.126-0.507-0.126-0.633-0.38c0.887-0.886,0.506-2.025,1.139-3.039C281.147,381.045,280.642,381.931,280.514,382.817
		L280.514,382.817z"/>
	<path fill-rule="evenodd" clip-rule="evenodd" fill="#FFFFFF" d="M304.951,381.551c0,0,0,0,0,0.127l-0.38-0.76
		C304.825,380.918,304.951,381.298,304.951,381.551L304.951,381.551z"/>
	<path fill-rule="evenodd" clip-rule="evenodd" fill="#FFFFFF" d="M283.554,383.958c-0.253,2.278,0.379,4.051,1.392,5.698
		c-1.139-0.254-0.633-1.646-1.646-2.026c-0.76-0.886-0.633-2.28-0.633-3.546l-0.759,0.127c0.759-0.886-0.633-2.026,0.252-2.785
		C282.414,382.311,284.313,383.071,283.554,383.958L283.554,383.958z"/>
	<path fill-rule="evenodd" clip-rule="evenodd" fill="#FFFFFF" d="M332.68,382.311c0,0,0,0.126-0.127,0.126
		c-0.506,0.127-0.253-0.379-0.253-0.759C332.426,381.678,332.68,381.931,332.68,382.311L332.68,382.311z"/>
	<path fill-rule="evenodd" clip-rule="evenodd" fill="#FFFFFF" d="M312.928,386.49c-0.127,0.253-0.633,0.126-0.886,0.126
		c0-0.38,0.126-0.759,0.126-1.267l0.127-0.125C312.801,385.349,312.295,386.236,312.928,386.49L312.928,386.49z"/>
	<path fill-rule="evenodd" clip-rule="evenodd" fill="#FFFFFF" d="M305.458,418.395c-0.507-0.125-0.507-1.01-0.126-1.139
		C305.583,417.385,305.332,418.018,305.458,418.395L305.458,418.395z"/>
	<path fill-rule="evenodd" clip-rule="evenodd" fill="#FFFFFF" d="M287.099,464.865c-0.253-0.256-0.887-0.129-1.013-0.762
		C286.592,464.357,286.845,464.609,287.099,464.865L287.099,464.865z"/>
	<path fill-rule="evenodd" clip-rule="evenodd" fill="#FFFFFF" d="M287.478,465.498l0.38,1.266c-0.506-0.633-1.519,0.252-1.899-0.76
		c-1.013,0.252-0.759-0.762-1.139-1.268C285.706,464.736,286.339,466.004,287.478,465.498L287.478,465.498z"/>
	<path fill-rule="evenodd" clip-rule="evenodd" fill="#FFFFFF" d="M288.111,465.498c-0.253,0.506,0.507,0.506,0.254,1.012
		c-0.633-0.379-0.379-1.393-1.14-1.52C287.478,465.117,287.858,465.117,288.111,465.498L288.111,465.498z"/>
	<path fill-rule="evenodd" clip-rule="evenodd" fill="#FFFFFF" d="M285.958,467.775c-0.252,0-0.759,0.127-0.633-0.252
		C285.579,467.648,285.833,467.523,285.958,467.775L285.958,467.775z"/>
	<polygon fill-rule="evenodd" clip-rule="evenodd" fill="#FFFFFF" points="286.086,467.902 286.339,467.902 286.086,467.902 	"/>
</g>
</svg>
