<?xml version="1.0" encoding="UTF-8" standalone="no"?>
<!-- Created with sK1/UniConvertor (http://sk1project.org/) -->

<svg
   xmlns:dc="http://purl.org/dc/elements/1.1/"
   xmlns:cc="http://creativecommons.org/ns#"
   xmlns:rdf="http://www.w3.org/1999/02/22-rdf-syntax-ns#"
   xmlns:svg="http://www.w3.org/2000/svg"
   xmlns="http://www.w3.org/2000/svg"
   xmlns:sodipodi="http://sodipodi.sourceforge.net/DTD/sodipodi-0.dtd"
   xmlns:inkscape="http://www.inkscape.org/namespaces/inkscape"
   width="165"
   height="127"
   viewBox="0 0 132 101.59999"
   id="svg2"
   version="1.1"
   inkscape:version="0.48.4 r9939"
   sodipodi:docname="QOTSA.svg"
   style="fill-rule:evenodd">
  <metadata
     id="metadata28">
    <rdf:RDF>
      <cc:Work
         rdf:about="">
        <dc:format>image/svg+xml</dc:format>
        <dc:type
           rdf:resource="http://purl.org/dc/dcmitype/StillImage" />
        <dc:title />
      </cc:Work>
    </rdf:RDF>
  </metadata>
  <sodipodi:namedview
     pagecolor="#ffffff"
     bordercolor="#666666"
     borderopacity="1"
     objecttolerance="10"
     gridtolerance="10"
     guidetolerance="10"
     inkscape:pageopacity="0"
     inkscape:pageshadow="2"
     inkscape:window-width="1359"
     inkscape:window-height="876"
     id="namedview26"
     showgrid="false"
     width="161px"
     inkscape:zoom="5.0743638"
     inkscape:cx="68.570891"
     inkscape:cy="68.753128"
     inkscape:window-x="81"
     inkscape:window-y="24"
     inkscape:window-maximized="1"
     inkscape:current-layer="svg2" />
  <defs
     id="defs4" />
  <g
     id="g16"
     transform="matrix(0.38137566,0,0,0.38137566,-51.482581,-91.704453)">
    <path
       style="fill:#ffffff;stroke:none"
       d="m 290.004,409.727 c 16.537,-12.502 48.449,13.007 40.697,32.761 7.868,20.613 23.753,16.742 36.549,1.568 11.156,-12.553 23.018,-16.056 35.935,-12.243 8.917,4.224 15.096,13.035 17.866,23.559 1.248,11.094 0.355,22.037 -4.785,32.762 1.878,-11.362 2.574,-22.724 0,-34.085 -3.758,-10.782 -11.972,-17.785 -22.034,-18.646 -9.386,0.46 -18.632,7.778 -23.812,17.008 -8.001,14.257 -20.666,18.994 -26.304,18.79 -6.824,1.161 -17.766,-8.296 -20.449,-21.351 -25.775,4.263 -43.472,-28.248 -33.663,-40.123 z"
       id="path18"
       inkscape:connector-curvature="0" />
    <path
       style="fill:#ffffff;stroke:none"
       d="m 329.115,467.47 c 3.74,4.817 9.28,7.428 15.001,7.432 9.892,-0.904 18.099,-4.855 27.165,-18.711 13.969,-20.168 24.87,-20.546 35.576,-10.849 -24.596,38.072 -61.743,55.637 -105.858,56.324 -162.918,-0.36 -173.058,-246.697 -5.992,-256.014 102.79,1.646 166.624,100.385 118.241,189.703 -9.921,-9.487 -20.327,-9.971 -32.377,-5.612 40.419,-66.252 0.567,-153.722 -83.468,-151.777 -57.544,3.261 -93.128,39.401 -94.273,94.274 0.731,63.081 40.288,95.699 91.078,98.268 11.821,1.584 23.446,0.414 34.907,-3.038 z"
       id="path20"
       inkscape:connector-curvature="0" />
    <path
       style="fill:#ffffff;stroke:#000000;stroke-width:1.33831298999999992;stroke-miterlimit:4;stroke-dasharray:none;stroke-opacity:1"
       d="m 154.694,398.838 -0.452,0 c -1.596,0 -3.309,-0.769 -5.136,-2.308 -2.868,-2.424 -5.022,-5.589 -6.465,-9.485 -1.433,-3.896 -2.155,-9.388 -2.155,-16.468 0,-9.6 1.155,-16.382 3.463,-20.345 1.318,-2.241 2.925,-3.357 4.82,-3.357 2.376,0 4.232,1.635 5.588,4.906 1.78,4.338 2.675,10.475 2.675,18.43 0,3.656 -0.202,7.022 -0.616,10.081 -0.414,3.069 -1.02,5.608 -1.809,7.638 -0.49,1.222 -1.192,2.444 -2.115,3.665 1.125,1.068 2.221,1.606 3.299,1.606 0.183,0 0.414,-0.009 0.673,-0.028 l -1.77,5.665 z m -5.868,-44.97 c -0.48,0.808 -0.846,1.683 -1.077,2.636 -0.241,0.942 -0.414,3.001 -0.529,6.156 -0.183,5.108 -0.279,8.657 -0.279,10.648 0,4.532 0.202,7.773 0.616,9.745 0.269,1.299 0.692,2.415 1.269,3.357 0.53,-0.991 0.914,-2.241 1.164,-3.752 0.433,-2.703 0.645,-7.156 0.645,-13.38 0,-5.367 -0.183,-9.215 -0.539,-11.524 -0.241,-1.501 -0.664,-2.799 -1.27,-3.886 z m 10.918,-6.628 6.195,0 0,33.476 c 0,2.798 0.52,4.674 1.558,5.636 0.904,-1.202 1.357,-2.895 1.357,-5.069 l 0,-34.043 6.223,0 0,33.476 c 0,4.213 -0.933,7.55 -2.789,10.033 -1.414,1.856 -3.011,2.789 -4.791,2.789 -1.221,0 -2.453,-0.471 -3.684,-1.423 -1.231,-0.953 -2.164,-2.338 -2.799,-4.156 -0.847,-2.482 -1.27,-4.896 -1.27,-7.243 l 0,-33.476 z m 18.489,0 10.571,0 0,6.09 -4.377,0 0,14.486 4.377,0 0,5.974 -4.377,0 0,13.351 4.377,0 0,6.032 -10.571,0 0,-45.933 z m 12.63,0 10.571,0 0,6.09 -4.377,0 0,14.486 4.377,0 0,5.974 -4.377,0 0,13.351 4.377,0 0,6.032 -10.571,0 0,-45.933 z m 12.774,0 5.666,0 3.857,23.962 0.375,0 -0.702,-23.962 6.137,0 0,45.933 -5.435,0 -4.232,-25.482 -0.231,0 0.673,25.482 -6.108,0 0,-45.933 z m 17.699,39.257 c 0.962,0.414 1.838,0.615 2.646,0.615 1.106,0 1.991,-0.355 2.635,-1.067 0.645,-0.712 0.972,-1.77 0.972,-3.156 0,-1.116 -0.125,-2.173 -0.366,-3.184 -0.471,-2.01 -1.337,-4.617 -2.587,-7.82 -1.26,-3.203 -2.194,-6.109 -2.79,-8.725 -0.337,-1.481 -0.51,-3.136 -0.51,-4.954 0,-3.944 0.77,-6.82 2.299,-8.628 1.53,-1.799 3.521,-2.703 5.983,-2.703 1.145,0 2.463,0.231 3.945,0.702 l 0,6.118 c -0.866,-0.414 -1.655,-0.616 -2.367,-0.616 -1.049,0 -1.943,0.433 -2.674,1.299 -0.731,0.866 -1.097,2.116 -1.097,3.77 0,1.088 0.116,2.165 0.356,3.213 0.462,1.972 1.241,4.426 2.357,7.349 1.404,3.666 2.424,6.946 3.059,9.841 0.317,1.462 0.481,3.03 0.481,4.704 0,3.309 -0.798,5.849 -2.405,7.618 -1.606,1.78 -3.617,2.665 -6.021,2.665 -1.049,0 -2.358,-0.241 -3.916,-0.731 l 0,-6.31 z m 23.472,-15.699 c 0,-8.869 0.952,-15.304 2.847,-19.306 1.462,-3.078 3.29,-4.617 5.464,-4.617 1.019,0 2.01,0.375 2.992,1.125 0.981,0.751 1.875,2.097 2.702,4.05 0.827,1.943 1.463,4.54 1.896,7.801 0.432,3.261 0.644,6.743 0.644,10.438 0,9.359 -1.135,15.967 -3.415,19.844 -1.328,2.27 -2.896,3.405 -4.704,3.405 -2.539,0 -4.502,-1.799 -5.887,-5.406 -1.693,-4.454 -2.539,-10.235 -2.539,-17.334 z m 8.311,-16.853 c -0.482,0.827 -0.857,1.732 -1.097,2.722 -0.24,0.981 -0.423,2.751 -0.539,5.31 -0.163,4.021 -0.25,7.186 -0.25,9.494 0,5.204 0.203,8.947 0.616,11.245 0.269,1.462 0.692,2.752 1.27,3.858 0.548,-1.087 0.933,-2.136 1.164,-3.146 0.221,-1 0.375,-2.77 0.442,-5.31 0.135,-4.694 0.202,-8.119 0.202,-10.283 0,-4.829 -0.202,-8.282 -0.596,-10.37 -0.26,-1.385 -0.664,-2.558 -1.212,-3.52 z m 10.831,-6.705 10.571,0 0,6.032 -4.377,0 0,14.515 4.377,0 0,5.945 -4.377,0 0,19.441 -6.194,0 0,-45.933 z m 21.086,0 14.9,0 0,6.003 -4.338,0 0,39.93 -6.195,0 0,-39.93 -4.367,0 0,-6.003 z m 17.113,0 6.194,0 0,20.576 3.165,0 0,-20.576 6.195,0 0,45.933 -6.195,0 0,-19.383 -3.165,0 0,19.383 -6.194,0 0,-45.933 z m 18.603,0 10.572,0 0,6.09 -4.377,0 0,14.486 4.377,0 0,5.974 -4.377,0 0,13.351 4.377,0 0,6.032 -10.572,0 0,-45.933 z m 21.172,39.257 c 0.963,0.414 1.838,0.615 2.646,0.615 1.106,0 1.991,-0.355 2.635,-1.067 0.645,-0.712 0.972,-1.77 0.972,-3.156 0,-1.116 -0.125,-2.173 -0.366,-3.184 -0.471,-2.01 -1.337,-4.617 -2.587,-7.82 -1.26,-3.203 -2.194,-6.109 -2.79,-8.725 -0.337,-1.481 -0.51,-3.136 -0.51,-4.954 0,-3.944 0.77,-6.82 2.299,-8.628 1.53,-1.799 3.521,-2.703 5.984,-2.703 1.144,0 2.462,0.231 3.944,0.702 l 0,6.118 c -0.866,-0.414 -1.655,-0.616 -2.367,-0.616 -1.048,0 -1.943,0.433 -2.674,1.299 -0.731,0.866 -1.096,2.116 -1.096,3.77 0,1.088 0.115,2.165 0.355,3.213 0.462,1.972 1.241,4.426 2.357,7.349 1.404,3.666 2.424,6.946 3.059,9.841 0.317,1.462 0.481,3.03 0.481,4.704 0,3.309 -0.798,5.849 -2.405,7.618 -1.606,1.78 -3.617,2.665 -6.021,2.665 -1.049,0 -2.358,-0.241 -3.916,-0.731 l 0,-6.31 z m 13.776,-39.257 14.9,0 0,6.003 -4.338,0 0,39.93 -6.196,0 0,-39.93 -4.366,0 0,-6.003 z m 14.4,23.558 c 0,-8.869 0.952,-15.304 2.847,-19.306 1.463,-3.078 3.29,-4.617 5.464,-4.617 1.02,0 2.01,0.375 2.992,1.125 0.981,0.751 1.875,2.097 2.703,4.05 0.827,1.943 1.462,4.54 1.895,7.801 0.433,3.261 0.644,6.743 0.644,10.438 0,9.359 -1.135,15.967 -3.414,19.844 -1.328,2.27 -2.896,3.405 -4.705,3.405 -2.539,0 -4.501,-1.799 -5.887,-5.406 -1.692,-4.454 -2.539,-10.235 -2.539,-17.334 z m 8.311,-16.853 c -0.481,0.827 -0.856,1.732 -1.097,2.722 -0.24,0.981 -0.423,2.751 -0.538,5.31 -0.164,4.021 -0.25,7.186 -0.25,9.494 0,5.204 0.202,8.947 0.615,11.245 0.269,1.462 0.693,2.752 1.27,3.858 0.548,-1.087 0.933,-2.136 1.164,-3.146 0.221,-1 0.375,-2.77 0.443,-5.31 0.134,-4.694 0.202,-8.119 0.202,-10.283 0,-4.829 -0.202,-8.282 -0.597,-10.37 -0.26,-1.385 -0.664,-2.558 -1.212,-3.52 z m 10.947,-6.705 5.666,0 3.857,23.962 0.375,0 -0.702,-23.962 6.137,0 0,45.933 -5.435,0 -4.232,-25.482 -0.231,0 0.673,25.482 -6.108,0 0,-45.933 z m 18.488,0 10.572,0 0,6.09 -4.377,0 0,14.486 4.377,0 0,5.974 -4.377,0 0,13.351 4.377,0 0,6.032 -10.572,0 0,-45.933 z m 26.27,-0.365 6.734,0 4.848,46.298 -6.253,0 -0.317,-8.254 -3.444,0 -0.606,8.254 -6.175,0 5.213,-46.298 z m 3.483,7.609 -0.501,0 c -0.182,6.425 -0.317,10.533 -0.413,12.342 l -0.664,12.091 2.694,0 -0.472,-9.331 -0.644,-15.102 z m 24.874,38.689 c -0.904,0.24 -2.125,0.365 -3.664,0.365 -2.011,0 -3.589,-0.269 -4.733,-0.817 -1.597,-0.732 -2.991,-2.001 -4.184,-3.819 -1.193,-1.809 -2.155,-4.281 -2.876,-7.398 -0.722,-3.116 -1.088,-6.762 -1.088,-10.927 0,-7.388 1.049,-13.178 3.155,-17.392 2.107,-4.204 4.848,-6.31 8.235,-6.31 0.769,0 1.5,0.105 2.183,0.308 0.683,0.211 1.674,0.673 2.972,1.385 l 0,7.186 c -1.413,-1.799 -2.827,-2.704 -4.251,-2.704 -1.847,0 -3.281,1.385 -4.319,4.165 -1.03,2.781 -1.549,6.917 -1.549,12.4 0,3.405 0.183,6.406 0.538,9.013 0.357,2.617 0.847,4.579 1.463,5.897 0.471,0.971 1.145,1.837 2.03,2.587 l 0,-10.879 -2.454,0 0,-5.974 8.542,0 0,22.914 z m 2.569,-45.933 10.571,0 0,6.09 -4.377,0 0,14.486 4.377,0 0,5.974 -4.377,0 0,13.351 4.377,0 0,6.032 -10.571,0 0,-45.933 z"
       id="path22"
       inkscape:connector-curvature="0" />
  </g>
  <g
     id="g24"
     transform="translate(0,-740.29007)" />
</svg>
